<?xml version="1.0" encoding="utf-8"?>
<!-- Generator: Adobe Illustrator 21.0.0, SVG Export Plug-In . SVG Version: 6.00 Build 0)  -->
<svg version="1.1" id="Calque_1" xmlns="http://www.w3.org/2000/svg" xmlns:xlink="http://www.w3.org/1999/xlink" x="0px" y="0px"
	 viewBox="0 0 198 487.4" style="enable-background:new 0 0 198 487.4;" xml:space="preserve">
<style type="text/css">
	.st0{opacity:0.7;}
	.st1{fill:#EFCBFF;}
	.st2{fill:none;}
	.st3{fill:#D7B6E5;}
	.st4{opacity:0.5;}
	.st5{opacity:0.9;}
	.st6{opacity:0.4;}
	.st7{opacity:0.6;}
</style>
<g class="st0">
	<polygon class="st1" points="194.2,436.4 162.1,377.1 161.8,376.6 109.9,281 109.6,280.7 109.6,280.6 79.9,225.9 0.4,28.5 
		0.4,28.5 0.4,28.4 0,0 53.8,0 97.4,108.3 97.4,108.4 113.4,148.1 139.9,234.3 140.9,237.5 151.5,271.8 193.9,409.2 	"/>
</g>
<polyline class="st2" points="170.8,314.4 170.8,314.3 72.3,22.3 "/>
<g class="st0">
	<polygon class="st3" points="188,487.4 156,429.8 151.4,421.4 109.2,345.1 109,344.8 99.7,328 75.4,284.1 63,261.7 62.7,261 
		31.6,185.2 1.7,112.3 1.7,112.3 1.6,112.1 1.6,112.1 1.6,112 1.6,112 1.6,111.9 0.4,28.5 0,0 26.5,0 82.1,135.4 82.1,135.6 
		99.6,178.2 128.6,270.6 129.7,274.1 159.4,368.5 162.1,377.1 187.5,458.3 	"/>
</g>
<g class="st4">
	<polygon class="st3" points="198,343.7 196.5,370.8 170.8,314.4 170.8,314.3 151.5,271.8 97.4,152.8 48.2,0 111.3,0 114.3,9 
		123.2,36.7 123.2,36.8 136.3,77.6 156.7,165.4 157.5,168.7 174.7,242.8 182.4,276.1 	"/>
</g>
<g class="st4">
	<polygon class="st1" points="191.8,249.2 191.1,272.4 191,276.4 174.7,242.8 86.3,61 65.2,1.2 80.3,0 127.1,0 145.8,72.1 
		146.7,75.3 146.7,75.4 169.4,162.8 178.9,199.5 	"/>
</g>
<g class="st0">
	<polygon class="st1" points="162.8,478.8 134.4,427.1 134.4,427 132.4,423.3 92.8,351.1 88.1,342.6 53.5,279.4 46.4,266.5 
		46.4,266.4 42,258.5 2.4,161.1 2.4,161.1 2.3,160.8 2.3,160.8 2.3,160.7 2.2,152.9 1.6,112 1.5,106.1 1.5,102.6 0.7,47.3 0.4,28.5 
		0,0 5.4,0 6.5,2.7 60.4,135.2 60.5,135.4 77.3,177 105.4,267.2 106.5,270.5 106.5,270.6 106.8,271.7 109.6,280.5 109.6,280.7 
		154,423.4 156,429.8 162.4,450.3 	"/>
</g>
<g class="st5">
	<g>
		<path class="st3" d="M139.3,442.9l-4.9-16l-0.4-1.2l0,0L109.1,345l-1.9-6.3l-20.8-67.5v-0.1l-1-3.2l0,0l-26.6-86.2l-16-39.7v-0.2
			L0.6,37l0,0l0,0l0.2,10.2l0,0l0.5,34.6l0.1,6.7l0.3,23.3l0.7,48.8l0.4,32L3,203.8l7.8,19.2l0,0l0,0l14.7,36.6l41,75.4l0,0
			l42.5,78.6l30.7,56.5L139.3,442.9z"/>
	</g>
</g>
<g class="st4">
	<polygon class="st3" points="186.9,174.2 183.3,200.2 183.1,201.2 169.4,162.8 114.3,9 111,0 161.3,0 173.1,79.9 173.1,80 
		175.9,98.8 	"/>
</g>
<g class="st6">
	<polygon class="st1" points="197,129.1 189.8,155.3 177.8,101.3 173.1,80 173.1,79.9 155.3,0 194.2,0 194.4,2.1 	"/>
</g>
<g class="st4">
	<polygon class="st3" points="5.2,367.2 3.7,258.8 14,303.4 34.9,393.3 39,411 37.4,438.1 	"/>
</g>
<g class="st4">
	<polygon class="st1" points="4.7,331.3 2.8,192.6 10.7,223.1 10.7,223.1 10.7,223.1 15.6,242.2 15.6,242.2 16.5,245.4 16.5,245.5 
		31.4,302.8 31.4,302.8 54.8,393.1 61.6,419.3 60.8,446.5 34.9,393.3 	"/>
</g>
<g class="st7">
	<path class="st1" d="M109,413.6l-16.2-62.5l-0.6-2.4l0,0l-16.8-64.6l-0.4-1.4v-0.1l-0.8-3.2l0,0l-0.8-3l-21.9-84.3l-14.2-40.4v-0.2
		L0.7,47.3l0.5,34.6l0.1,6.7l0.3,23.3l0.7,48.8l0.5,31.9L3,203.8l0.5,32.6l0,0l11.2,31.9l16.8,34.5l0,0L84,411.1l0,0l35.3,72.6
		l0.8-27.2L109,413.6z"/>
</g>
<g class="st0">
	<polygon class="st3" points="4,281.3 1.3,88.7 15,131.1 15,131.2 16.6,136.2 16.6,136.4 29.7,177.1 31.6,185.2 31.6,185.2 
		50.1,264.9 50.1,264.9 50.9,268.2 50.9,268.3 52.7,276 52.7,276 53.5,279.4 53.5,279.4 66.4,335.1 66.4,335.1 84,411.1 84,411.1 
		91.4,443.2 89.9,470.4 54.8,393.1 14,303.4 	"/>
</g>
</svg>
